<svg width="64" height="60" viewBox="0 0 64 60" fill="none" xmlns="http://www.w3.org/2000/svg">
    <path opacity="0.21" fill-rule="evenodd" clip-rule="evenodd" d="M0 30V37C0 49.7025 10.2974 60 23 60H31.9508H40.9016C53.6041 60 63.9016 49.7025 63.9016 37V30.0148C63.9016 30.0099 63.9016 30.0049 63.9016 30C63.9016 29.9951 63.9016 29.9901 63.9016 29.9852V23C63.9016 10.2975 53.6041 0 40.9016 0H31.9508H23C10.2974 0 0 10.2975 0 23V30Z" fill="#FEC53D"/>
    <path fill-rule="evenodd" clip-rule="evenodd" d="M15.9756 24.3162L29.7149 31.7643C29.8629 31.8445 30.018 31.9024 30.1759 31.9392V46.3844L16.9555 39.0382C16.3481 38.7007 15.9756 38.0873 15.9756 37.4246V24.3162ZM47.9264 24.1182V37.4246C47.9264 38.0873 47.5539 38.7007 46.9465 39.0382L33.7261 46.3844V31.8126C33.7583 31.7975 33.7902 31.7814 33.8218 31.7643L47.9264 24.1182Z" fill="#FEC53D"/>
    <path opacity="0.499209" fill-rule="evenodd" clip-rule="evenodd" d="M16.4072 20.7014C16.575 20.5024 16.7869 20.3343 17.0338 20.2108L31.0123 13.2201C31.5991 12.9266 32.303 12.9266 32.8898 13.2201L46.8683 20.2108C47.0586 20.306 47.2281 20.4277 47.3727 20.5697L32.0468 28.8778C31.946 28.9325 31.8531 28.995 31.7684 29.064C31.6837 28.995 31.5908 28.9325 31.4901 28.8778L16.4072 20.7014Z" fill="#FEC53D"/>
</svg>
