<svg width="64" height="60" viewBox="0 0 64 60" fill="none" xmlns="http://www.w3.org/2000/svg">
    <path opacity="0.21" fill-rule="evenodd" clip-rule="evenodd" d="M0 30V37C0 49.7025 10.2974 60 23 60H31.9508H40.9016C53.6041 60 63.9016 49.7025 63.9016 37V30.0148C63.9016 30.0099 63.9016 30.0049 63.9016 30C63.9016 29.9951 63.9016 29.9901 63.9016 29.9852V23C63.9016 10.2975 53.6041 0 40.9016 0H31.9508H23C10.2974 0 0 10.2975 0 23V30Z" fill="#4AD991"/>
    <path d="M20.3535 40.8889H45.2041C46.119 40.8889 46.8608 41.5853 46.8608 42.4444C46.8608 43.3036 46.119 44 45.2041 44H18.6967C17.7818 44 17.04 43.3036 17.04 42.4444V17.5556C17.04 16.6964 17.7818 16 18.6967 16C19.6117 16 20.3535 16.6964 20.3535 17.5556V40.8889Z" fill="#4AD991"/>
    <path opacity="0.5" d="M26.5323 34.175C25.9065 34.8017 24.8581 34.8335 24.1906 34.2459C23.5231 33.6583 23.4893 32.6739 24.1151 32.0472L30.3277 25.8249C30.9329 25.2188 31.9386 25.1662 32.6118 25.7056L37.5152 29.6343L43.9039 22.0361C44.4708 21.3618 45.5126 21.2467 46.2308 21.779C46.9489 22.3114 47.0715 23.2895 46.5045 23.9638L39.0493 32.8305C38.467 33.5231 37.3885 33.6227 36.6736 33.0499L31.6636 29.0358L26.5323 34.175Z" fill="#4AD991"/>
</svg>
