<svg xmlns="http://www.w3.org/2000/svg" width="40" height="40" viewBox="0 0 40 40" fill="none">
    <path opacity="0.2" d="M36.25 21.25V31.25C36.25 31.5815 36.1183 31.8995 35.8839 32.1339C35.6495 32.3683 35.3315 32.5 35 32.5H5C4.66848 32.5 4.35054 32.3683 4.11612 32.1339C3.8817 31.8995 3.75 31.5815 3.75 31.25V21.25C3.75 20.9185 3.8817 20.6005 4.11612 20.3661C4.35054 20.1317 4.66848 20 5 20H35C35.3315 20 35.6495 20.1317 35.8839 20.3661C36.1183 20.6005 36.25 20.9185 36.25 21.25Z" fill="#0FA958"/>
    <path d="M37.5 21.25V31.25C37.5 31.913 37.2366 32.5489 36.7678 33.0178C36.2989 33.4866 35.663 33.75 35 33.75H5C4.33696 33.75 3.70107 33.4866 3.23223 33.0178C2.76339 32.5489 2.5 31.913 2.5 31.25V21.25C2.5 20.587 2.76339 19.9511 3.23223 19.4822C3.70107 19.0134 4.33696 18.75 5 18.75H12.5C12.8315 18.75 13.1495 18.8817 13.3839 19.1161C13.6183 19.3505 13.75 19.6685 13.75 20C13.75 20.3315 13.6183 20.6495 13.3839 20.8839C13.1495 21.1183 12.8315 21.25 12.5 21.25H5V31.25H35V21.25H27.5C27.1685 21.25 26.8505 21.1183 26.6161 20.8839C26.3817 20.6495 26.25 20.3315 26.25 20C26.25 19.6685 26.3817 19.3505 26.6161 19.1161C26.8505 18.8817 27.1685 18.75 27.5 18.75H35C35.663 18.75 36.2989 19.0134 36.7678 19.4822C37.2366 19.9511 37.5 20.587 37.5 21.25ZM13.3844 12.1344L18.75 6.76719V20C18.75 20.3315 18.8817 20.6495 19.1161 20.8839C19.3505 21.1183 19.6685 21.25 20 21.25C20.3315 21.25 20.6495 21.1183 20.8839 20.8839C21.1183 20.6495 21.25 20.3315 21.25 20V6.76719L26.6156 12.1344C26.8502 12.3689 27.1683 12.5007 27.5 12.5007C27.8317 12.5007 28.1498 12.3689 28.3844 12.1344C28.6189 11.8998 28.7507 11.5817 28.7507 11.25C28.7507 10.9183 28.6189 10.6002 28.3844 10.3656L20.8844 2.86563C20.7683 2.74941 20.6304 2.65721 20.4787 2.59431C20.3269 2.5314 20.1643 2.49902 20 2.49902C19.8357 2.49902 19.6731 2.5314 19.5213 2.59431C19.3696 2.65721 19.2317 2.74941 19.1156 2.86563L11.6156 10.3656C11.3811 10.6002 11.2493 10.9183 11.2493 11.25C11.2493 11.5817 11.3811 11.8998 11.6156 12.1344C11.8502 12.3689 12.1683 12.5007 12.5 12.5007C12.8317 12.5007 13.1498 12.3689 13.3844 12.1344ZM31.25 26.25C31.25 25.8792 31.14 25.5167 30.934 25.2083C30.728 24.9 30.4351 24.6596 30.0925 24.5177C29.7499 24.3758 29.3729 24.3387 29.0092 24.411C28.6455 24.4834 28.3114 24.662 28.0492 24.9242C27.787 25.1864 27.6084 25.5205 27.536 25.8842C27.4637 26.2479 27.5008 26.6249 27.6427 26.9675C27.7846 27.3101 28.025 27.603 28.3333 27.809C28.6416 28.015 29.0042 28.125 29.375 28.125C29.8723 28.125 30.3492 27.9275 30.7008 27.5758C31.0525 27.2242 31.25 26.7473 31.25 26.25Z" fill="#0FA958"/>
</svg>
